<svg xmlns="http://www.w3.org/2000/svg" version="1.1" xmlns:xlink="http://www.w3.org/1999/xlink" xmlns:svgjs="http://svgjs.dev/svgjs" width="1000" height="1000" viewBox="0 0 1000 1000"><rect width="1000" height="1000" fill="#ffffff"></rect><g transform="matrix(0.7,0,0,0.7,150,218.95000000000005)"><svg viewBox="0 0 448 360" data-background-color="#ffffff" preserveAspectRatio="xMidYMid meet" height="803" width="1000" xmlns="http://www.w3.org/2000/svg" xmlns:xlink="http://www.w3.org/1999/xlink"><g id="tight-bounds" transform="matrix(1,0,0,1,0,0)"><svg viewBox="0 0 448 360" height="360" width="448"><g><svg></svg></g><g><svg viewBox="0 0 448 360" height="360" width="448"><g><path xmlns="http://www.w3.org/2000/svg" d="M193.855 44.683c1.378 0 2.494 1.116 2.495 2.494 0 1.378-1.116 2.494-2.495 2.495h-23.846l-17.167 17.167c-0.973 0.973-2.551 0.973-3.53 0-0.973-0.973-0.973-2.551 0-3.529l13.644-13.645h-40.378c-11.518 0-19.151 2.688-23.815 8.113-4.739 5.519-6.66 14.056-6.66 25.63 0 0.069 0 0.137-0.006 0.206l0.212 36.692 14.692-14.692c0.973-0.973 2.551-0.973 3.53 0 0.973 0.973 0.973 2.551 0 3.53l-18.178 18.178c0.206 35.832 0.193 71.358-0.013 107.19 25.486 25.2 50.617 50.312 75.811 75.791h25.38c1.378 0 2.494 1.116 2.495 2.495 0 1.378-1.116 2.494-2.495 2.494h-20.448l25.942 26.241 0.006-0.006c8.188 8.188 15.577 12.859 22.824 13.413 7.146 0.543 14.442-2.956 22.586-11.093l28.555-28.555h-20.722c-1.378 0-2.494-1.116-2.495-2.494 0-1.378 1.116-2.494 2.495-2.495h25.711l16.625-16.625c0.973-0.973 2.551-0.973 3.529 0 0.973 0.973 0.973 2.551 0 3.53l-13.101 13.102h40.377c11.518 0 19.151-2.688 23.815-8.113 4.739-5.519 6.66-14.056 6.66-25.63h0.013l-0.212-36.898-16.014 16.014c-0.973 0.973-2.551 0.973-3.53 0-0.973-0.973-0.973-2.551 0-3.53l19.5-19.5c-0.206-35.832-0.193-71.358 0.013-107.19-25.486-25.2-50.617-50.312-75.811-75.791h-26.147c-1.378 0-2.494-1.116-2.495-2.495 0-1.378 1.116-2.494 2.495-2.494h21.215l-25.824-26.123c-0.044-0.037-0.081-0.075-0.124-0.112-8.188-8.188-15.577-12.859-22.824-13.413-7.146-0.543-14.442 2.956-22.586 11.093l-28.555 28.555h18.858zM122.578 44.683h45.367l32.078-32.078c9.248-9.248 17.81-13.195 26.484-12.534 8.568 0.649 16.956 5.824 25.985 14.854 0.05 0.05 0.094 0.094 0.137 0.143l29.278 29.615h43.508c13.071 0 21.919 3.268 27.594 9.871 5.6 6.517 7.864 16.101 7.864 28.867 0 0.081-0.006 0.156-0.012 0.23l-0.225 39.742 28.43 28.112 0.006-0.006c9.03 9.03 14.206 17.411 14.854 25.985 0.661 8.674-3.293 17.236-12.534 26.484l-30.768 30.768 0.237 41.843h0.012c0 12.765-2.27 22.35-7.864 28.867-5.675 6.604-14.524 9.872-27.594 9.871h-45.366l-32.078 32.078c-9.248 9.248-17.81 13.195-26.484 12.534-8.568-0.649-16.956-5.824-25.985-14.854l0.006-0.006-29.421-29.758h-43.509c-13.071 0-21.919-3.268-27.594-9.872-5.6-6.517-7.864-16.101-7.863-28.866h0.012l0.231-39.972-28.293-27.969c-0.05-0.044-0.1-0.087-0.143-0.137-9.03-9.03-14.206-17.411-14.854-25.985-0.661-8.674 3.293-17.236 12.534-26.484l30.768-30.768-0.237-41.607c-0.006-0.075-0.012-0.156-0.012-0.23 0-12.765 2.27-22.35 7.864-28.867 5.675-6.604 14.524-9.872 27.594-9.871zM87.682 179.997l-0.274-47.724-27.276 27.276c-8.138 8.138-11.636 15.44-11.094 22.587 0.549 7.246 5.226 14.642 13.413 22.823 0.037 0.037 0.081 0.081 0.113 0.125l24.837 24.551 0.281-49.644zM92.303 241.483l-0.2 35.09h0.013c0 11.58 1.921 20.117 6.66 25.63 4.664 5.432 12.297 8.113 23.815 8.113h38.576l-33.55-33.936-35.308-34.903zM325.415 49.672h-38.575l33.549 33.936 35.308 34.902 0.2-34.884c-0.006-0.069-0.006-0.137-0.007-0.205 0-11.58-1.921-20.117-6.66-25.63-4.664-5.432-12.297-8.113-23.815-8.113zM360.599 130.352l-0.281 49.645 0.274 47.724 27.276-27.276c8.138-8.138 11.636-15.44 11.094-22.587-0.549-7.252-5.226-14.642-13.413-22.824l0.006-0.006-24.956-24.669z" fill="#ffa458" fill-rule="nonzero" stroke="none" stroke-width="1" stroke-linecap="butt" stroke-linejoin="miter" stroke-miterlimit="10" stroke-dasharray="" stroke-dashoffset="0" font-family="none" font-weight="none" font-size="none" text-anchor="none" style="mix-blend-mode: normal" data-fill-palette-color="tertiary"></path></g><g transform="matrix(1,0,0,1,112,146.28167877342418)"><svg viewBox="0 0 224 67.43664245315162" height="67.43664245315162" width="224"><g><svg viewBox="0 0 224 67.43664245315162" height="67.43664245315162" width="224"><g transform="matrix(1,0,0,1,0,41.678550459965926)"><svg viewBox="0 0 224 25.758091993185687" height="25.758091993185687" width="224"><g id="textblocktransform"><svg viewBox="0 0 224 25.758091993185687" height="25.758091993185687" width="224" id="textblock"><g><svg viewBox="0 0 224 25.758091993185687" height="25.758091993185687" width="224"><g transform="matrix(1,0,0,1,0,0)"><svg width="224" viewBox="1.5099999904632568 -37.5 343.67999267578125 39.54999923706055" height="25.758091993185687" data-palette-color="#ffa458"><g class="wordmark-text-0" data-fill-palette-color="primary" id="text-0"><path d="M24.9-28.56L24.9-27.93Q24.9-23.88 24.71-19.8 24.51-15.72 24.22-11.67L24.22-11.67Q24.17-10.94 24.12-9.69 24.07-8.45 23.93-7.01 23.78-5.57 23.54-4.1 23.29-2.64 22.78-1.44 22.27-0.24 21.46 0.51 20.65 1.27 19.48 1.27L19.48 1.27Q18.46 1.27 17.65 0.83 16.85 0.39 16.31-0.32 15.77-1.03 15.48-1.93 15.19-2.83 15.19-3.81L15.19-3.81Q15.19-5.42 15.28-7.06 15.38-8.69 15.58-10.3L15.58-10.3 10.74-9.81Q10.6-8.54 10.42-6.76 10.25-4.98 9.74-3.34 9.23-1.71 8.2-0.54 7.18 0.63 5.37 0.63L5.37 0.63Q4.25 0.63 3.52 0.12 2.78-0.39 2.34-1.2 1.9-2 1.71-2.98 1.51-3.96 1.51-4.83L1.51-4.83Q1.51-7.76 1.76-10.67 2-13.57 2.1-16.5L2.1-16.5Q2.2-19.58 2.17-22.68 2.15-25.78 2.25-28.91L2.25-28.91Q2.29-29.93 2.32-31.3 2.34-32.67 2.66-33.86 2.98-35.06 3.74-35.89 4.49-36.72 6.01-36.72L6.01-36.72Q8.11-36.72 9.18-35.62 10.25-34.52 10.69-32.89 11.13-31.25 11.13-29.42 11.13-27.59 11.13-26.12L11.13-26.12Q11.13-24.17 11.04-22.29 10.94-20.41 10.84-18.51L10.84-18.51 16.06-19.29Q16.11-21.68 16.16-24.02 16.21-26.37 16.36-28.71L16.36-28.71Q16.41-29.83 16.46-31.1 16.5-32.37 16.85-33.45 17.19-34.52 17.99-35.23 18.8-35.94 20.41-35.94L20.41-35.94Q21.78-35.94 22.63-35.16 23.49-34.38 24-33.25 24.51-32.13 24.71-30.86 24.9-29.59 24.9-28.56L24.9-28.56ZM45.02-33.15L45.02-33.15Q45.02-32.23 44.6-31.49 44.19-30.76 43.5-30.25 42.82-29.74 41.99-29.39 41.16-29.05 40.38-28.91L40.38-28.91Q40.28-23.39 39.96-18.26 39.65-13.13 38.96-7.67L38.96-7.67 39.26-7.67Q40.04-7.67 40.79-7.5 41.55-7.32 42.16-6.91 42.77-6.49 43.14-5.88 43.5-5.27 43.5-4.39L43.5-4.39Q43.5-3.27 42.8-2.44 42.09-1.61 40.94-1.03 39.79-0.44 38.38-0.05 36.96 0.34 35.54 0.56 34.13 0.78 32.86 0.88 31.59 0.98 30.81 0.98L30.81 0.98Q30.22 0.98 29.37 0.93 28.51 0.88 27.76 0.63 27 0.39 26.46-0.1 25.93-0.59 25.93-1.42L25.93-1.42Q25.93-2.44 26.34-3.25 26.76-4.05 27.44-4.69 28.12-5.32 28.98-5.71 29.83-6.1 30.71-6.3L30.71-6.3Q31.05-8.98 31.35-11.65 31.64-14.31 31.74-17.04L31.74-17.04Q31.83-19.82 31.93-22.53 32.03-25.24 32.13-27.98L32.13-27.98Q31.78-27.93 31.49-27.91 31.2-27.88 30.95-27.88L30.95-27.88Q30.27-27.88 29.49-28.03 28.71-28.17 28.02-28.54 27.34-28.91 26.88-29.44 26.41-29.98 26.41-30.81L26.41-30.81Q26.41-32.47 27.81-33.54 29.2-34.62 31.13-35.21 33.05-35.79 35.06-36.01 37.06-36.23 38.28-36.23L38.28-36.23Q38.96-36.23 40.09-36.13 41.21-36.04 42.31-35.69 43.41-35.35 44.21-34.77 45.02-34.18 45.02-33.15ZM67.57-11.72L67.57-11.72Q67.13-9.52 66.18-7.15 65.23-4.79 63.74-2.83 62.25-0.88 60.2 0.37 58.15 1.61 55.51 1.61L55.51 1.61Q53.56 1.61 52 0.83 50.43 0.05 49.16-1.27 47.9-2.59 46.97-4.3 46.04-6.01 45.43-7.84 44.82-9.67 44.53-11.47 44.23-13.28 44.23-14.84L44.23-14.84Q44.23-17.04 44.65-19.56 45.06-22.07 45.89-24.54 46.72-27 47.99-29.27 49.26-31.54 51-33.28 52.73-35.01 54.9-36.06 57.08-37.11 59.76-37.11L59.76-37.11Q61.47-37.11 62.93-36.45 64.4-35.79 65.47-34.69 66.55-33.59 67.16-32.08 67.77-30.57 67.77-28.91L67.77-28.91 67.77-28.47Q67.77-27.59 67.7-26.29 67.62-25 67.23-23.83 66.84-22.66 66.06-21.8 65.28-20.95 63.86-20.95L63.86-20.95Q62.15-20.95 61.27-21.73 60.4-22.51 60.4-24.32L60.4-24.32Q60.4-25 60.44-25.68 60.49-26.37 60.49-27.05L60.49-27.05Q60.49-28.08 60.15-28.64 59.81-29.2 58.74-29.2L58.74-29.2Q57.51-29.2 56.54-28.42 55.56-27.64 54.83-26.37 54.1-25.1 53.56-23.49 53.02-21.88 52.68-20.24 52.34-18.6 52.19-17.09 52.05-15.58 52.05-14.5L52.05-14.5Q52.05-13.62 52.14-12.48 52.24-11.33 52.56-10.28 52.88-9.23 53.51-8.5 54.15-7.76 55.17-7.76L55.17-7.76Q56.93-7.76 58-8.86 59.08-9.96 59.47-11.67L59.47-11.67Q58.78-11.77 58.12-11.99 57.47-12.21 56.9-12.62 56.34-13.04 56-13.65 55.66-14.26 55.66-15.09L55.66-15.09Q55.66-16.6 56.68-17.46 57.71-18.31 59.1-18.75 60.49-19.19 61.96-19.31 63.42-19.43 64.3-19.43L64.3-19.43Q64.94-19.43 66.16-19.34 67.38-19.24 68.57-18.92 69.77-18.6 70.65-18.02 71.53-17.43 71.53-16.5L71.53-16.5Q71.53-14.65 70.53-13.31 69.53-11.96 67.57-11.72ZM95.16-28.56L95.16-27.93Q95.16-23.88 94.96-19.8 94.77-15.72 94.47-11.67L94.47-11.67Q94.43-10.94 94.38-9.69 94.33-8.45 94.18-7.01 94.04-5.57 93.79-4.1 93.55-2.64 93.03-1.44 92.52-0.24 91.72 0.51 90.91 1.27 89.74 1.27L89.74 1.27Q88.71 1.27 87.91 0.83 87.1 0.39 86.56-0.32 86.03-1.03 85.73-1.93 85.44-2.83 85.44-3.81L85.44-3.81Q85.44-5.42 85.54-7.06 85.64-8.69 85.83-10.3L85.83-10.3 81-9.81Q80.85-8.54 80.68-6.76 80.51-4.98 80-3.34 79.48-1.71 78.46-0.54 77.43 0.63 75.63 0.63L75.63 0.63Q74.5 0.63 73.77 0.12 73.04-0.39 72.6-1.2 72.16-2 71.97-2.98 71.77-3.96 71.77-4.83L71.77-4.83Q71.77-7.76 72.01-10.67 72.26-13.57 72.36-16.5L72.36-16.5Q72.45-19.58 72.43-22.68 72.4-25.78 72.5-28.91L72.5-28.91Q72.55-29.93 72.58-31.3 72.6-32.67 72.92-33.86 73.23-35.06 73.99-35.89 74.75-36.72 76.26-36.72L76.26-36.72Q78.36-36.72 79.44-35.62 80.51-34.52 80.95-32.89 81.39-31.25 81.39-29.42 81.39-27.59 81.39-26.12L81.39-26.12Q81.39-24.17 81.29-22.29 81.19-20.41 81.1-18.51L81.1-18.51 86.32-19.29Q86.37-21.68 86.42-24.02 86.47-26.37 86.61-28.71L86.61-28.71Q86.66-29.83 86.71-31.1 86.76-32.37 87.1-33.45 87.44-34.52 88.25-35.23 89.06-35.94 90.67-35.94L90.67-35.94Q92.03-35.94 92.89-35.16 93.74-34.38 94.26-33.25 94.77-32.13 94.96-30.86 95.16-29.59 95.16-28.56L95.16-28.56ZM121.67-6.74L121.67-6.74Q121.67-5.52 120.67-4.44 119.67-3.37 118.08-2.49 116.49-1.61 114.54-0.95 112.59-0.29 110.68 0.17 108.78 0.63 107.09 0.88 105.41 1.12 104.43 1.12L104.43 1.12Q103.51 1.12 102.46 0.95 101.41 0.78 100.72 0.2L100.72 0.2Q100.33-0.1 100.04-1.12 99.75-2.15 99.48-3.56 99.21-4.98 99.01-6.62 98.82-8.25 98.7-9.81 98.57-11.38 98.5-12.7 98.43-14.01 98.43-14.75L98.43-14.75Q98.43-15.97 98.5-17.7 98.57-19.43 98.72-21.41 98.87-23.39 99.11-25.44 99.36-27.49 99.67-29.32 99.99-31.15 100.45-32.62 100.92-34.08 101.45-34.91L101.45-34.91Q102.38-36.23 103.8-36.23L103.8-36.23Q104.78-36.23 105.46-35.57 106.14-34.91 106.56-33.86 106.97-32.81 107.19-31.52 107.41-30.22 107.51-28.96 107.61-27.69 107.61-26.61 107.61-25.54 107.61-24.9L107.61-24.9Q107.61-21.09 107.44-17.36 107.27-13.62 107.27-9.81L107.27-9.81 107.27-7.91Q109.46-8.59 112.05-9.2 114.64-9.81 116.98-9.81L116.98-9.81Q117.81-9.81 118.67-9.72 119.52-9.62 120.18-9.3 120.84-8.98 121.25-8.37 121.67-7.76 121.67-6.74ZM139.78-33.15L139.78-33.15Q139.78-32.23 139.37-31.49 138.95-30.76 138.27-30.25 137.59-29.74 136.76-29.39 135.93-29.05 135.14-28.91L135.14-28.91Q135.05-23.39 134.73-18.26 134.41-13.13 133.73-7.67L133.73-7.67 134.02-7.67Q134.8-7.67 135.56-7.5 136.32-7.32 136.93-6.91 137.54-6.49 137.9-5.88 138.27-5.27 138.27-4.39L138.27-4.39Q138.27-3.27 137.56-2.44 136.85-1.61 135.71-1.03 134.56-0.44 133.14-0.05 131.73 0.34 130.31 0.56 128.89 0.78 127.62 0.88 126.35 0.98 125.57 0.98L125.57 0.98Q124.99 0.98 124.13 0.93 123.28 0.88 122.52 0.63 121.76 0.39 121.23-0.1 120.69-0.59 120.69-1.42L120.69-1.42Q120.69-2.44 121.11-3.25 121.52-4.05 122.2-4.69 122.89-5.32 123.74-5.71 124.6-6.1 125.48-6.3L125.48-6.3Q125.82-8.98 126.11-11.65 126.4-14.31 126.5-17.04L126.5-17.04Q126.6-19.82 126.7-22.53 126.79-25.24 126.89-27.98L126.89-27.98Q126.55-27.93 126.26-27.91 125.96-27.88 125.72-27.88L125.72-27.88Q125.04-27.88 124.26-28.03 123.47-28.17 122.79-28.54 122.11-28.91 121.64-29.44 121.18-29.98 121.18-30.81L121.18-30.81Q121.18-32.47 122.57-33.54 123.96-34.62 125.89-35.21 127.82-35.79 129.82-36.01 131.82-36.23 133.04-36.23L133.04-36.23Q133.73-36.23 134.85-36.13 135.97-36.04 137.07-35.69 138.17-35.35 138.98-34.77 139.78-34.18 139.78-33.15ZM162.34-11.72L162.34-11.72Q161.9-9.52 160.95-7.15 159.99-4.79 158.51-2.83 157.02-0.88 154.97 0.37 152.91 1.61 150.28 1.61L150.28 1.61Q148.32 1.61 146.76 0.83 145.2 0.05 143.93-1.27 142.66-2.59 141.73-4.3 140.81-6.01 140.19-7.84 139.58-9.67 139.29-11.47 139-13.28 139-14.84L139-14.84Q139-17.04 139.41-19.56 139.83-22.07 140.66-24.54 141.49-27 142.76-29.27 144.03-31.54 145.76-33.28 147.49-35.01 149.67-36.06 151.84-37.11 154.53-37.11L154.53-37.11Q156.24-37.11 157.7-36.45 159.16-35.79 160.24-34.69 161.31-33.59 161.92-32.08 162.53-30.57 162.53-28.91L162.53-28.91 162.53-28.47Q162.53-27.59 162.46-26.29 162.39-25 162-23.83 161.61-22.66 160.82-21.8 160.04-20.95 158.63-20.95L158.63-20.95Q156.92-20.95 156.04-21.73 155.16-22.51 155.16-24.32L155.16-24.32Q155.16-25 155.21-25.68 155.26-26.37 155.26-27.05L155.26-27.05Q155.26-28.08 154.92-28.64 154.57-29.2 153.5-29.2L153.5-29.2Q152.28-29.2 151.3-28.42 150.33-27.64 149.59-26.37 148.86-25.1 148.32-23.49 147.79-21.88 147.45-20.24 147.1-18.6 146.96-17.09 146.81-15.58 146.81-14.5L146.81-14.5Q146.81-13.62 146.91-12.48 147.01-11.33 147.32-10.28 147.64-9.23 148.28-8.5 148.91-7.76 149.94-7.76L149.94-7.76Q151.69-7.76 152.77-8.86 153.84-9.96 154.23-11.67L154.23-11.67Q153.55-11.77 152.89-11.99 152.23-12.21 151.67-12.62 151.11-13.04 150.77-13.65 150.42-14.26 150.42-15.09L150.42-15.09Q150.42-16.6 151.45-17.46 152.48-18.31 153.87-18.75 155.26-19.19 156.72-19.31 158.19-19.43 159.07-19.43L159.07-19.43Q159.7-19.43 160.92-19.34 162.14-19.24 163.34-18.92 164.54-18.6 165.41-18.02 166.29-17.43 166.29-16.5L166.29-16.5Q166.29-14.65 165.29-13.31 164.29-11.96 162.34-11.72ZM189.92-28.56L189.92-27.93Q189.92-23.88 189.73-19.8 189.53-15.72 189.24-11.67L189.24-11.67Q189.19-10.94 189.14-9.69 189.09-8.45 188.95-7.01 188.8-5.57 188.56-4.1 188.31-2.64 187.8-1.44 187.29-0.24 186.48 0.51 185.68 1.27 184.5 1.27L184.5 1.27Q183.48 1.27 182.67 0.83 181.87 0.39 181.33-0.32 180.79-1.03 180.5-1.93 180.21-2.83 180.21-3.81L180.21-3.81Q180.21-5.42 180.3-7.06 180.4-8.69 180.6-10.3L180.6-10.3 175.76-9.81Q175.62-8.54 175.45-6.76 175.28-4.98 174.76-3.34 174.25-1.71 173.22-0.54 172.2 0.63 170.39 0.63L170.39 0.63Q169.27 0.63 168.54 0.12 167.8-0.39 167.37-1.2 166.93-2 166.73-2.98 166.54-3.96 166.54-4.83L166.54-4.83Q166.54-7.76 166.78-10.67 167.02-13.57 167.12-16.5L167.12-16.5Q167.22-19.58 167.19-22.68 167.17-25.78 167.27-28.91L167.27-28.91Q167.32-29.93 167.34-31.3 167.37-32.67 167.68-33.86 168-35.06 168.76-35.89 169.51-36.72 171.03-36.72L171.03-36.72Q173.13-36.72 174.2-35.62 175.28-34.52 175.71-32.89 176.15-31.25 176.15-29.42 176.15-27.59 176.15-26.12L176.15-26.12Q176.15-24.17 176.06-22.29 175.96-20.41 175.86-18.51L175.86-18.51 181.09-19.29Q181.13-21.68 181.18-24.02 181.23-26.37 181.38-28.71L181.38-28.71Q181.43-29.83 181.48-31.1 181.53-32.37 181.87-33.45 182.21-34.52 183.01-35.23 183.82-35.94 185.43-35.94L185.43-35.94Q186.8-35.94 187.65-35.16 188.51-34.38 189.02-33.25 189.53-32.13 189.73-30.86 189.92-29.59 189.92-28.56L189.92-28.56ZM214.29-33.35L214.29-33.35Q214.29-32.13 213.33-31.13 212.38-30.13 211.04-29.37 209.7-28.61 208.28-28.13 206.86-27.64 205.94-27.44L205.94-27.44Q205.55-23.68 205.33-19.95 205.11-16.21 205.11-12.45L205.11-12.45Q205.11-10.45 205.2-8.5 205.3-6.54 205.3-4.59L205.3-4.59Q205.3-3.71 205.13-2.66 204.96-1.61 204.55-0.68 204.13 0.24 203.4 0.88 202.67 1.51 201.59 1.51L201.59 1.51Q200.32 1.51 199.56 0.81 198.81 0.1 198.39-0.93 197.98-1.95 197.83-3.1 197.69-4.25 197.69-5.18L197.69-5.18Q197.59-8.11 197.54-11.06 197.49-14.01 197.49-16.99L197.49-16.99Q197.49-19.48 197.51-21.88 197.54-24.27 197.54-26.76L197.54-26.76Q196.86-26.66 196.15-26.61 195.44-26.56 194.71-26.56L194.71-26.56Q194.12-26.56 193.17-26.68 192.22-26.81 191.34-27.12 190.46-27.44 189.82-28 189.19-28.56 189.19-29.44L189.19-29.44Q189.19-30.91 190.34-32.01 191.48-33.11 193.27-33.91 195.05-34.72 197.22-35.28 199.39-35.84 201.52-36.16 203.64-36.47 205.42-36.62 207.21-36.77 208.18-36.77L208.18-36.77Q209.11-36.77 210.16-36.69 211.21-36.62 212.14-36.28 213.07-35.94 213.68-35.25 214.29-34.57 214.29-33.35ZM233.03-7.67L233.03-7.67Q233.03-6.74 232.55-5.86L232.55-5.86Q232.06-5.03 230.25-3.91 228.44-2.78 226.25-1.78 224.05-0.78 222-0.07 219.95 0.63 218.97 0.63L218.97 0.63Q218.29 0.63 217.36 0.32 216.43 0 215.5-0.49 214.58-0.98 213.82-1.61 213.06-2.25 212.72-2.83L212.72-2.83Q212.53-3.17 212.36-4.2 212.18-5.22 212.06-6.59 211.94-7.96 211.84-9.5 211.75-11.04 211.67-12.43 211.6-13.82 211.57-14.89 211.55-15.97 211.55-16.46L211.55-16.46Q211.55-18.26 211.67-20.61 211.79-22.95 212.14-25.32 212.48-27.69 213.14-29.86 213.8-32.03 214.92-33.54L214.92-33.54Q215.26-33.98 216.29-34.47 217.31-34.96 218.7-35.4 220.09-35.84 221.71-36.23 223.32-36.62 224.81-36.89 226.3-37.16 227.52-37.33 228.74-37.5 229.37-37.5L229.37-37.5Q230.1-37.5 230.76-37.18 231.42-36.87 231.89-36.33 232.35-35.79 232.62-35.13 232.89-34.47 232.89-33.74L232.89-33.74Q232.89-33.11 232.72-32.67 232.55-32.23 232.2-31.69L232.2-31.69Q231.72-31.05 230.15-30.18 228.59-29.3 226.76-28.44 224.93-27.59 223.24-26.9 221.56-26.22 220.88-25.93L220.88-25.93Q220.68-24.8 220.46-23.66 220.24-22.51 220.14-21.34L220.14-21.34Q221.66-22.12 223.56-22.8 225.47-23.49 227.17-23.49L227.17-23.49Q230.64-23.49 230.64-20.07L230.64-20.07Q230.64-19.24 230.32-18.6 230.01-17.97 229.49-17.48 228.98-16.99 228.32-16.63 227.66-16.26 227.03-15.92L227.03-15.92Q225.47-15.09 223.76-14.48 222.05-13.87 220.34-13.28L220.34-13.28Q220.24-12.89 220.14-12.43 220.05-11.96 220.05-11.52L220.05-11.52Q220.05-10.84 220.14-10.16 220.24-9.47 220.34-8.79L220.34-8.79Q220.92-8.98 222.22-9.42 223.51-9.86 224.93-10.3 226.34-10.74 227.66-11.06 228.98-11.38 229.62-11.38L229.62-11.38Q230.35-11.38 230.98-11.06 231.62-10.74 232.06-10.23 232.5-9.72 232.77-9.03 233.03-8.35 233.03-7.67ZM259.06-25.68L259.06-25.68Q259.06-22.31 257.49-19.63 255.93-16.94 253.34-14.89L253.34-14.89Q254.13-13.72 254.96-12.16 255.79-10.6 256.44-8.86 257.1-7.13 257.52-5.4 257.93-3.66 257.93-2.2L257.93-2.2Q257.93-0.63 257.18 0.61 256.42 1.86 254.61 1.86L254.61 1.86Q253.1 1.86 252 0.39 250.9-1.07 250.05-3.1 249.19-5.13 248.49-7.23 247.78-9.33 247.14-10.6L247.14-10.6Q246.26-10.3 245.43-9.94 244.6-9.57 243.73-9.23L243.73-9.23Q243.68-8.15 243.55-6.27 243.43-4.39 243.02-2.54 242.6-0.68 241.77 0.68 240.94 2.05 239.48 2.05L239.48 2.05Q237.87 2.05 236.99 0.73 236.11-0.59 235.74-2.39 235.38-4.2 235.33-6.08 235.28-7.96 235.28-9.03L235.28-9.03Q235.28-11.33 235.38-13.55 235.47-15.77 235.47-18.07L235.47-18.07Q235.47-20.17 235.4-22.27 235.33-24.37 235.33-26.51L235.33-26.51Q235.33-27 235.33-27.76 235.33-28.52 235.4-29.32 235.47-30.13 235.57-30.86 235.67-31.59 235.91-32.03L235.91-32.03Q236.4-33.06 238.13-33.98 239.87-34.91 241.94-35.62 244.02-36.33 246-36.74 247.97-37.16 248.95-37.16L248.95-37.16Q251.44-37.16 253.34-36.23 255.25-35.3 256.52-33.72 257.79-32.13 258.42-30.05 259.06-27.98 259.06-25.68ZM250.02-25L250.02-25Q250.02-26.27 249.44-26.93 248.85-27.59 247.53-27.59L247.53-27.59Q246.56-27.59 245.56-27.25 244.56-26.9 243.73-26.46L243.73-26.46Q243.92-22.61 243.87-18.8L243.87-18.8Q244.9-19.14 245.97-19.68 247.05-20.21 247.95-21 248.85-21.78 249.44-22.75 250.02-23.73 250.02-25Z" fill="#ffa458" data-fill-palette-color="primary"></path><path d="M294.95-26.17L294.95-26.17Q294.95-23.54 293.8-21 292.65-18.46 290.75-16.43 288.84-14.4 286.4-13.11 283.96-11.82 281.37-11.67L281.37-11.67Q281.32-10.79 281.3-9.45 281.27-8.11 281.13-6.64 280.98-5.18 280.71-3.71 280.44-2.25 279.93-1.07 279.42 0.1 278.61 0.83 277.81 1.56 276.64 1.56L276.64 1.56Q275.27 1.56 274.46 0.66 273.66-0.24 273.24-1.51 272.83-2.78 272.68-4.17 272.53-5.57 272.49-6.54L272.49-6.54Q272.39-7.96 272.36-9.33 272.34-10.69 272.34-12.11L272.34-12.11Q272.34-12.74 272.34-14.48 272.34-16.21 272.36-18.43 272.39-20.65 272.44-23.07 272.49-25.49 272.58-27.56 272.68-29.64 272.8-31.1 272.92-32.57 273.12-32.81L273.12-32.81Q273.17-32.86 273.41-33.03 273.66-33.2 273.95-33.37 274.24-33.54 274.49-33.69 274.73-33.84 274.83-33.89L274.83-33.89Q277.08-35.16 279.76-36.08 282.45-37.01 285.08-37.01L285.08-37.01Q287.33-37.01 289.16-36.11 290.99-35.21 292.29-33.72 293.58-32.23 294.26-30.25 294.95-28.27 294.95-26.17ZM286.5-25.05L286.5-25.05Q286.5-26.03 286.04-26.76 285.57-27.49 284.5-27.49L284.5-27.49Q283.57-27.49 282.64-27.12 281.71-26.76 280.93-26.37L280.93-26.37Q281.08-24.66 281.2-23.05 281.32-21.44 281.23-19.73L281.23-19.73Q282.01-20.12 282.93-20.63 283.86-21.14 284.64-21.78 285.42-22.41 285.96-23.22 286.5-24.02 286.5-25.05ZM319.94-25.68L319.94-25.68Q319.94-22.31 318.38-19.63 316.82-16.94 314.23-14.89L314.23-14.89Q315.01-13.72 315.84-12.16 316.67-10.6 317.33-8.86 317.99-7.13 318.41-5.4 318.82-3.66 318.82-2.2L318.82-2.2Q318.82-0.63 318.06 0.61 317.31 1.86 315.5 1.86L315.5 1.86Q313.99 1.86 312.89 0.39 311.79-1.07 310.93-3.1 310.08-5.13 309.37-7.23 308.66-9.33 308.03-10.6L308.03-10.6Q307.15-10.3 306.32-9.94 305.49-9.57 304.61-9.23L304.61-9.23Q304.56-8.15 304.44-6.27 304.32-4.39 303.9-2.54 303.49-0.68 302.66 0.68 301.83 2.05 300.36 2.05L300.36 2.05Q298.75 2.05 297.87 0.73 296.99-0.59 296.63-2.39 296.26-4.2 296.21-6.08 296.16-7.96 296.16-9.03L296.16-9.03Q296.16-11.33 296.26-13.55 296.36-15.77 296.36-18.07L296.36-18.07Q296.36-20.17 296.29-22.27 296.21-24.37 296.21-26.51L296.21-26.51Q296.21-27 296.21-27.76 296.21-28.52 296.29-29.32 296.36-30.13 296.46-30.86 296.56-31.59 296.8-32.03L296.8-32.03Q297.29-33.06 299.02-33.98 300.75-34.91 302.83-35.62 304.9-36.33 306.88-36.74 308.86-37.16 309.84-37.16L309.84-37.16Q312.33-37.16 314.23-36.23 316.14-35.3 317.4-33.72 318.67-32.13 319.31-30.05 319.94-27.98 319.94-25.68ZM310.91-25L310.91-25Q310.91-26.27 310.32-26.93 309.74-27.59 308.42-27.59L308.42-27.59Q307.44-27.59 306.44-27.25 305.44-26.9 304.61-26.46L304.61-26.46Q304.81-22.61 304.76-18.8L304.76-18.8Q305.78-19.14 306.86-19.68 307.93-20.21 308.84-21 309.74-21.78 310.32-22.75 310.91-23.73 310.91-25ZM332.83 1.61L332.83 1.61Q329.85 1.61 327.66 0.12 325.46-1.37 324.02-3.88 322.58-6.4 321.87-9.72 321.16-13.04 321.16-16.7L321.16-16.7Q321.16-20.12 321.92-23.63 322.68-27.15 324.24-29.98 325.8-32.81 328.19-34.62 330.59-36.43 333.91-36.43L333.91-36.43Q337.13-36.43 339.3-34.69 341.47-32.96 342.77-30.2 344.06-27.44 344.62-24.02 345.19-20.61 345.19-17.19L345.19-17.19Q345.19-13.38 344.43-9.99 343.67-6.59 342.13-4 340.6-1.42 338.28 0.1 335.96 1.61 332.83 1.61ZM333.42-25.63L333.42-25.63Q332.49-25.63 331.83-24.9 331.17-24.17 330.73-22.97 330.29-21.78 330.1-20.29 329.9-18.8 329.9-17.29L329.9-17.29Q329.9-15.58 330.12-13.87 330.34-12.16 330.78-10.79 331.22-9.42 331.88-8.59 332.54-7.76 333.47-7.76L333.47-7.76Q334.54-7.76 335.18-8.84 335.81-9.91 336.18-11.43 336.54-12.94 336.66-14.55 336.79-16.16 336.79-17.24L336.79-17.24Q336.79-18.55 336.62-20.02 336.45-21.48 336.05-22.73 335.66-23.97 335.03-24.8 334.39-25.63 333.42-25.63Z" fill="#ba3b0a" data-fill-palette-color="secondary"></path></g></svg></g></svg></g></svg></g></svg></g><g transform="matrix(1,0,0,1,94.31756007772309,0)"><svg viewBox="0 0 35.364879844553826 35.597683134582624" height="35.597683134582624" width="35.364879844553826"><g><svg xmlns="http://www.w3.org/2000/svg" xmlns:xlink="http://www.w3.org/1999/xlink" version="1.1" x="0" y="0" viewBox="0.5477879047393799 0.3033747971057892 98.0189437866211 98.66419219970703" enable-background="new 0 0 100 100" xml:space="preserve" height="35.597683134582624" width="35.364879844553826" class="icon-icon-0" data-fill-palette-color="accent" id="icon-0"><g fill="#ba3b0a" data-fill-palette-color="accent"><path d="M1.401 74.107l25.778 24.137c0.945 0.882 2.362 0.954 3.379 0.236L0.939 70.751C0.289 71.813 0.453 73.221 1.401 74.107z" fill="#ba3b0a" data-fill-palette-color="accent"></path><g fill="#ba3b0a" data-fill-palette-color="accent"><path d="M66.319 3.95l0.83 1.361-1.438 1.93 4.252 5.044 3.707 3.459 3.27-3.502c-4.008-6.046-5.68-11.494-5.68-11.494-0.361-0.577-1.377-0.596-2.256-0.036l-1.746 1.182C66.376 2.451 65.956 3.371 66.319 3.95z" fill="#ba3b0a" data-fill-palette-color="accent"></path><path d="M97.692 27.645c0.953-1.019 1.16-2.374 0.459-3.031l-1.502-1.411-1.525-4.162-2.193-3.096-0.676-0.634-0.008 0.008-3.037-2.844c0.262-0.59 0.436-1.226 0.502-1.903 0.328-3.382-2.15-6.389-5.533-6.717-3.383-0.328-6.391 2.149-6.719 5.534-0.1 1.016 0.061 1.998 0.416 2.885l-0.273 0.293-0.262 0.279-3.154 3.379 0.002 0.001-0.48 0.516-0.002-0.001-0.008-0.007v0.001l-0.607-0.569L61.54 5.391 2.21 69.004l30.306 28.372 51.719-55.48L97.692 27.645zM77.954 20.614l-2.018-1.888c-0.416-0.388-0.438-1.039-0.045-1.453 0.385-0.414 1.033-0.436 1.447-0.049l2.021 1.891c0.412 0.389 0.434 1.039 0.047 1.454S78.37 21.002 77.954 20.614zM83.069 6.727l-4.045 4.321c-0.113-0.487-0.174-0.994-0.121-1.521 0.25-2.586 2.549-4.48 5.135-4.232 2.588 0.252 4.482 2.552 4.234 5.139-0.035 0.336-0.105 0.661-0.205 0.97L83.069 6.727zM87.462 27.401c-0.211 0.225-0.564 0.235-0.785 0.026-0.223-0.207-0.234-0.558-0.023-0.779l3.158-3.375c0.207-0.226 0.559-0.236 0.779-0.027 0.225 0.21 0.236 0.56 0.027 0.782L87.462 27.401z" fill="#ba3b0a" data-fill-palette-color="accent"></path></g></g></svg></g></svg></g><g></g></svg></g></svg></g></svg></g><defs></defs></svg><rect width="448" height="360" fill="none" stroke="none" visibility="hidden"></rect></g></svg></g></svg>